<svg width="auto" height="auto" viewBox="0 0 508 346" fill="none" xmlns="http://www.w3.org/2000/svg">
<path opacity="0.1" d="M254 346C394.28 346 508 339.376 508 331.206C508 323.035 394.28 316.411 254 316.411C113.72 316.411 0 323.035 0 331.206C0 339.376 113.72 346 254 346Z" fill="#6C63FF"/>
<path d="M420.062 325.245C426.623 325.245 431.941 324.204 431.941 322.921C431.941 321.637 426.623 320.596 420.062 320.596C413.502 320.596 408.184 321.637 408.184 322.921C408.184 324.204 413.502 325.245 420.062 325.245Z" fill="#83F310"/>
<path d="M419.865 323.78C420.63 323.78 421.25 322.955 421.25 321.937C421.25 320.92 420.63 320.095 419.865 320.095C419.1 320.095 418.48 320.92 418.48 321.937C418.48 322.955 419.1 323.78 419.865 323.78Z" fill="#3F3D56"/>
<path d="M419.865 321.527C420.63 321.527 421.25 320.702 421.25 319.685C421.25 318.668 420.63 317.843 419.865 317.843C419.1 317.843 418.48 318.668 418.48 319.685C418.48 320.702 419.1 321.527 419.865 321.527Z" fill="#3F3D56"/>
<path d="M419.865 319.279C420.63 319.279 421.25 318.454 421.25 317.437C421.25 316.42 420.63 315.595 419.865 315.595C419.1 315.595 418.48 316.42 418.48 317.437C418.48 318.454 419.1 319.279 419.865 319.279Z" fill="#3F3D56"/>
<path d="M419.865 317.031C420.63 317.031 421.25 316.207 421.25 315.189C421.25 314.172 420.63 313.347 419.865 313.347C419.1 313.347 418.48 314.172 418.48 315.189C418.48 316.207 419.1 317.031 419.865 317.031Z" fill="#3F3D56"/>
<path d="M419.865 314.779C420.63 314.779 421.25 313.954 421.25 312.937C421.25 311.919 420.63 311.095 419.865 311.095C419.1 311.095 418.48 311.919 418.48 312.937C418.48 313.954 419.1 314.779 419.865 314.779Z" fill="#3F3D56"/>
<path d="M419.865 312.531C420.63 312.531 421.25 311.706 421.25 310.689C421.25 309.672 420.63 308.847 419.865 308.847C419.1 308.847 418.48 309.672 418.48 310.689C418.48 311.706 419.1 312.531 419.865 312.531Z" fill="#3F3D56"/>
<path d="M419.865 310.283C420.63 310.283 421.25 309.459 421.25 308.441C421.25 307.424 420.63 306.599 419.865 306.599C419.1 306.599 418.48 307.424 418.48 308.441C418.48 309.459 419.1 310.283 419.865 310.283Z" fill="#3F3D56"/>
<path d="M425.039 293.05C425.229 292.805 425.402 292.547 425.556 292.277L421.922 291.671L425.851 291.699C426.228 290.865 426.433 289.962 426.455 289.045C426.477 288.128 426.314 287.215 425.978 286.364L420.706 289.146L425.57 285.51C425.116 284.705 424.503 284.004 423.771 283.451C423.038 282.898 422.201 282.505 421.312 282.295C420.423 282.086 419.501 282.066 418.604 282.236C417.707 282.406 416.854 282.762 416.099 283.283C415.343 283.803 414.702 284.477 414.214 285.261C413.727 286.045 413.404 286.923 413.265 287.84C413.127 288.757 413.177 289.693 413.411 290.589C413.645 291.486 414.058 292.323 414.626 293.05C414.332 293.431 414.079 293.842 413.87 294.277L418.565 296.768L413.536 295.05C413.184 296.113 413.099 297.249 413.289 298.355C413.48 299.46 413.939 300.499 414.626 301.378C413.857 302.371 413.379 303.564 413.246 304.821C413.113 306.077 413.33 307.346 413.873 308.483C414.417 309.62 415.263 310.578 416.317 311.249C417.371 311.92 418.589 312.275 419.832 312.275C421.076 312.275 422.294 311.92 423.348 311.249C424.401 310.578 425.248 309.62 425.791 308.483C426.335 307.346 426.552 306.077 426.419 304.821C426.286 303.564 425.808 302.371 425.039 301.378C425.958 300.192 426.457 298.726 426.457 297.216C426.457 295.707 425.958 294.241 425.039 293.055V293.05Z" fill="#28A745"/>
<path opacity="0.1" d="M413.208 297.212C413.203 298.72 413.7 300.187 414.616 301.373C413.848 302.366 413.369 303.559 413.236 304.816C413.103 306.072 413.321 307.342 413.864 308.478C414.407 309.615 415.254 310.574 416.308 311.244C417.362 311.915 418.58 312.27 419.823 312.27C421.066 312.27 422.284 311.915 423.338 311.244C424.392 310.574 425.239 309.615 425.782 308.478C426.325 307.342 426.543 306.072 426.41 304.816C426.277 303.559 425.799 302.366 425.03 301.373C425.927 300.228 413.208 296.458 413.208 297.212Z" fill="black"/>
<path d="M147.282 343.938C156.047 343.938 163.152 342.549 163.152 340.836C163.152 339.123 156.047 337.734 147.282 337.734C138.518 337.734 131.413 339.123 131.413 340.836C131.413 342.549 138.518 343.938 147.282 343.938Z" fill="#83F310"/>
<path d="M147.015 341.977C148.036 341.977 148.865 340.876 148.865 339.519C148.865 338.162 148.036 337.061 147.015 337.061C145.993 337.061 145.165 338.162 145.165 339.519C145.165 340.876 145.993 341.977 147.015 341.977Z" fill="#3F3D56"/>
<path d="M147.015 338.97C148.036 338.97 148.865 337.87 148.865 336.512C148.865 335.155 148.036 334.055 147.015 334.055C145.993 334.055 145.165 335.155 145.165 336.512C145.165 337.87 145.993 338.97 147.015 338.97Z" fill="#3F3D56"/>
<path d="M147.015 335.964C148.036 335.964 148.865 334.863 148.865 333.506C148.865 332.148 148.036 331.048 147.015 331.048C145.993 331.048 145.165 332.148 145.165 333.506C145.165 334.863 145.993 335.964 147.015 335.964Z" fill="#3F3D56"/>
<path d="M147.015 332.962C148.036 332.962 148.865 331.861 148.865 330.504C148.865 329.147 148.036 328.046 147.015 328.046C145.993 328.046 145.165 329.147 145.165 330.504C145.165 331.861 145.993 332.962 147.015 332.962Z" fill="#3F3D56"/>
<path d="M147.015 329.955C148.036 329.955 148.865 328.855 148.865 327.497C148.865 326.14 148.036 325.04 147.015 325.04C145.993 325.04 145.165 326.14 145.165 327.497C145.165 328.855 145.993 329.955 147.015 329.955Z" fill="#3F3D56"/>
<path d="M147.015 326.949C148.036 326.949 148.865 325.848 148.865 324.491C148.865 323.133 148.036 322.033 147.015 322.033C145.993 322.033 145.165 323.133 145.165 324.491C145.165 325.848 145.993 326.949 147.015 326.949Z" fill="#3F3D56"/>
<path d="M147.015 323.947C148.036 323.947 148.865 322.846 148.865 321.489C148.865 320.131 148.036 319.031 147.015 319.031C145.993 319.031 145.165 320.131 145.165 321.489C145.165 322.846 145.993 323.947 147.015 323.947Z" fill="#3F3D56"/>
<path d="M153.935 300.925C154.186 300.597 154.415 300.252 154.621 299.894L149.771 299.082L155.02 299.125C155.525 298.011 155.8 296.804 155.83 295.578C155.859 294.352 155.641 293.133 155.189 291.995L148.146 295.708L154.64 290.879C154.028 289.815 153.209 288.889 152.231 288.161C151.254 287.432 150.14 286.915 148.957 286.642C147.775 286.369 146.551 286.346 145.36 286.574C144.168 286.802 143.036 287.276 142.032 287.967C141.029 288.658 140.176 289.552 139.526 290.592C138.876 291.632 138.443 292.797 138.255 294.014C138.066 295.231 138.125 296.474 138.429 297.667C138.732 298.86 139.274 299.977 140.019 300.948C139.627 301.458 139.289 302.008 139.01 302.59L145.315 305.931L138.592 303.64C138.119 305.056 138 306.57 138.246 308.045C138.492 309.519 139.095 310.909 140 312.087C138.974 313.414 138.336 315.008 138.159 316.686C137.982 318.365 138.273 320.06 138.998 321.578C139.724 323.096 140.856 324.376 142.263 325.272C143.671 326.168 145.298 326.642 146.958 326.642C148.619 326.642 150.246 326.168 151.654 325.272C153.061 324.376 154.193 323.096 154.919 321.578C155.644 320.06 155.935 318.365 155.758 316.686C155.581 315.008 154.943 313.414 153.916 312.087C155.142 310.501 155.808 308.542 155.808 306.525C155.808 304.508 155.142 302.549 153.916 300.963L153.935 300.925Z" fill="#28A745"/>
<path opacity="0.1" d="M138.127 306.484C138.121 308.501 138.783 310.461 140.005 312.049C138.979 313.376 138.341 314.97 138.164 316.648C137.986 318.327 138.277 320.022 139.003 321.54C139.729 323.058 140.86 324.338 142.268 325.234C143.675 326.129 145.303 326.604 146.963 326.604C148.624 326.604 150.251 326.129 151.659 325.234C153.066 324.338 154.197 323.058 154.923 321.54C155.649 320.022 155.94 318.327 155.763 316.648C155.586 314.97 154.947 313.376 153.921 312.049C155.118 310.517 138.127 305.477 138.127 306.484Z" fill="black"/>
<path d="M230.835 204.226C229.638 197.859 228.3 191.479 228.079 185.003C227.947 181.185 228.21 177.3 227.727 173.492C227.487 171.621 227.069 169.783 226.656 167.946L224.994 160.592C225.183 159.182 225.129 157.75 224.835 156.359C224.668 155.625 224.447 154.906 224.173 154.206C225.724 151.987 227.003 149.583 227.98 147.048C228.422 145.902 228.802 144.685 228.628 143.473C228.29 141.149 226.074 139.617 224.013 138.472C222.764 137.78 221.45 137.111 220.022 137.002C219.024 136.961 218.03 137.155 217.118 137.569C216.206 137.983 215.4 138.605 214.764 139.388C214.417 137.506 214.533 135.567 215.102 133.742C213.876 133.184 212.642 132.659 211.397 132.148C211.218 130.499 211.155 128.839 211.21 127.18C211.238 125.19 211.271 123.181 211.383 121.186C214.722 119.947 217.608 117.7 219.655 114.746C221.701 111.792 222.809 108.272 222.83 104.659C222.83 104.454 222.83 104.253 222.83 104.053C223.74 102.39 224.315 100.56 224.523 98.6692C224.731 96.7783 224.567 94.8642 224.041 93.0382C222.666 88.2658 219.069 84.3333 214.736 81.9042C210.402 79.475 205.378 78.4489 200.406 78.2676C198.738 78.1683 197.064 78.2757 195.42 78.5873C193.662 79.0273 191.958 79.6677 190.34 80.4963C187.857 81.6608 185.354 82.935 183.495 84.9442C180.27 88.4424 179.547 93.5823 179.899 98.307C180.368 104.511 182.406 110.515 184.763 116.289C185.547 118.198 186.382 120.136 187.674 121.763C188.674 123.019 190.411 123.095 191.791 122.217C191.682 123.741 191.647 125.27 191.688 126.798C189.138 126.708 186.655 127.132 184.608 128.593C183.669 129.275 182.777 130.349 182.983 131.504C183.61 131.521 184.211 131.762 184.68 132.186C185.149 132.609 185.456 133.187 185.547 133.818C185.65 134.835 185.148 135.804 184.659 136.682C184.448 137.073 184.237 137.469 184.021 137.861C182.002 140.056 179.932 142.805 179.748 145.53C179.419 145.562 179.091 145.611 178.767 145.678C176.936 146.022 175.114 146.656 173.316 147.134L160.302 150.617L157.086 151.524L151.921 152.908C148.635 153.786 145.287 154.688 142.371 156.454C139.456 158.22 136.982 160.993 136.395 164.333C136.104 165.994 136.282 167.722 135.925 169.368C135.925 169.445 135.897 169.516 135.878 169.588C135.58 170.63 135.179 171.639 134.681 172.599C131.765 178.846 129.69 185.656 130.08 192.533C130.319 196.757 131.488 200.876 132.625 204.942C133.817 209.1 134.994 213.258 136.155 217.417C136.921 220.394 137.892 223.312 139.061 226.15C141.065 230.697 144.036 234.734 147.761 237.972C148.807 238.925 149.976 239.728 151.236 240.358C153.157 241.202 155.254 241.548 157.339 241.365C157.903 241.327 158.457 241.265 159.006 241.174C163.039 240.525 166.8 238.549 170.25 236.325C171.693 235.396 173.102 234.418 174.476 233.39C174.65 234.993 174.965 236.578 175.415 238.124C175.72 239.189 176.096 240.281 175.974 241.384C175.805 242.921 174.706 244.181 174.138 245.622C172.931 248.667 174.171 252.06 174.373 255.324C174.565 258.383 173.833 261.419 173.246 264.43C172.266 269.452 171.686 274.546 171.513 279.663C171.508 281.601 171.383 283.536 171.138 285.457C170.701 288.168 169.678 290.783 169.499 293.523C169.227 297.789 171.039 301.965 170.875 306.236C170.682 311.252 167.786 316.125 168.795 321.031C168.922 321.646 169.264 322.357 169.818 322.515L169.546 322.768C168.715 323.551 167.908 324.997 168.851 325.631C169.068 325.763 169.31 325.847 169.56 325.88C171.02 326.19 172.49 326.471 173.959 326.734C173.927 328.114 174.098 329.491 174.467 330.819C174.734 331.015 175.006 331.191 175.279 331.358C175.072 331.921 175.086 332.465 175.575 332.79C175.792 332.921 176.033 333.006 176.284 333.038C188.378 335.575 200.729 336.616 213.069 336.14C215.276 336.054 217.581 335.892 219.464 334.747C221.346 333.601 222.619 331.163 221.722 329.153C220.928 327.378 218.853 326.61 216.989 326.018L214.801 325.331C215.082 324.826 215.245 324.262 215.279 323.683C215.313 323.105 215.217 322.525 214.999 321.99C214.205 320.215 212.13 319.446 210.266 318.855L205.228 317.265C204.565 317.106 203.942 316.808 203.397 316.392C203.036 316.027 202.704 315.635 202.402 315.218C201.675 314.373 200.72 313.764 199.655 313.466C199.599 312.381 199.622 311.293 199.726 310.212L201.134 292.931C201.449 289.017 201.759 285.028 200.862 281.205C200.5 279.654 199.923 278.065 200.275 276.509C200.824 273.97 203.454 272.557 205.247 270.672C207.951 267.809 208.792 263.738 209.411 259.863C211.978 243.871 212.784 227.639 211.815 211.466C217.451 209.851 223.252 208.903 229.102 208.64C230.098 208.597 230.586 208.12 230.896 207.175C231.206 206.23 231.018 205.204 230.835 204.226ZM202.735 205.071C202.768 204.904 202.806 204.737 202.834 204.57L203.223 205.075L202.735 205.071Z" fill="url(#paint0_linear)"/>
<path d="M192.279 116.804C192.157 118.465 191.58 120.059 191.369 121.715C191.129 123.538 191.34 125.394 191.223 127.232C191.106 129.069 190.584 131.002 189.209 132.2C197.204 132.904 205.08 134.636 212.646 137.354C210.36 134.491 210.299 130.491 210.355 126.816C210.43 121.381 210.524 115.84 212.271 110.71C207.062 109.526 201.667 109.455 196.43 110.5C195.294 110.729 191.852 110.585 191.34 111.664C190.969 112.456 192.364 115.601 192.279 116.804Z" fill="#FDA8A8"/>
<path opacity="0.1" d="M191.34 116.804C191.218 118.465 190.641 120.059 190.43 121.715C190.19 123.538 190.401 125.394 190.284 127.232C190.167 129.069 189.646 131.002 188.27 132.2C196.265 132.904 204.141 134.636 211.707 137.354C209.421 134.491 209.36 130.491 209.416 126.816C209.491 121.381 209.585 115.84 211.332 110.71C206.123 109.526 200.729 109.455 195.491 110.5C194.355 110.729 190.913 110.585 190.401 111.664C190.03 112.456 191.425 115.601 191.34 116.804Z" fill="#FDA8A8"/>
<path d="M203.045 315.242C203.327 315.665 203.641 316.066 203.984 316.44C204.513 316.856 205.122 317.154 205.773 317.313L210.693 318.902C212.52 319.494 214.548 320.258 215.323 322.033C216.196 324.037 214.952 326.476 213.111 327.617C211.271 328.757 209.017 328.924 206.862 329.01C194.796 329.483 182.719 328.443 170.903 325.913C170.659 325.877 170.425 325.793 170.213 325.665C169.274 325.02 170.077 323.579 170.889 322.801C174.058 319.747 177.504 316.545 181.819 315.838C184.087 315.461 186.364 315.614 188.617 315.065C190.237 314.669 191.768 313.987 193.383 313.581C196.392 312.832 200.895 312.564 203.045 315.242Z" fill="#46455B"/>
<path opacity="0.1" d="M203.045 315.242C203.327 315.665 203.641 316.066 203.984 316.44C204.513 316.856 205.122 317.154 205.773 317.313L210.693 318.902C212.52 319.494 214.548 320.258 215.323 322.033C216.196 324.037 214.952 326.476 213.111 327.617C211.271 328.757 209.017 328.924 206.862 329.01C194.796 329.483 182.719 328.443 170.903 325.913C170.659 325.877 170.425 325.793 170.213 325.665C169.274 325.02 170.077 323.579 170.889 322.801C174.058 319.747 177.504 316.545 181.819 315.838C184.087 315.461 186.364 315.614 188.617 315.065C190.237 314.669 191.768 313.987 193.383 313.581C196.392 312.832 200.895 312.564 203.045 315.242Z" fill="black"/>
<path d="M178.34 207.299C175.912 213.812 175.763 220.976 177.917 227.587C176.279 227.406 175.57 229.658 175.612 231.338C175.67 233.677 176.019 235.999 176.65 238.248C176.95 239.317 177.316 240.406 177.199 241.503C177.03 243.04 175.96 244.3 175.401 245.736C174.227 248.776 175.434 252.165 175.636 255.424C175.823 258.484 175.105 261.514 174.528 264.521C173.571 269.537 173.006 274.623 172.837 279.73C172.834 281.666 172.71 283.599 172.466 285.519C172.044 288.23 171.058 290.84 170.87 293.575C170.603 297.832 172.373 302.008 172.213 306.274C172.025 311.281 169.189 316.149 170.18 321.069C170.321 321.761 170.701 322.577 171.401 322.587C178.481 322.677 185.096 320.678 192.101 321.723C192.815 305.248 193.51 288.698 196.702 272.524C199.519 258.126 204.294 243.889 203.848 229.21C203.59 220.815 201.627 212.582 200.435 204.269C192.949 202.579 185.117 203.654 178.34 207.299V207.299Z" fill="#BBBDC8"/>
<path opacity="0.1" d="M178.34 207.299C175.912 213.812 175.763 220.976 177.917 227.587C176.279 227.406 175.57 229.658 175.612 231.338C175.67 233.677 176.019 235.999 176.65 238.248C176.95 239.317 177.316 240.406 177.199 241.503C177.03 243.04 175.96 244.3 175.401 245.736C174.227 248.776 175.434 252.165 175.636 255.424C175.823 258.484 175.105 261.514 174.528 264.521C173.571 269.537 173.006 274.623 172.837 279.73C172.834 281.666 172.71 283.599 172.466 285.519C172.044 288.23 171.058 290.84 170.87 293.575C170.603 297.832 172.373 302.008 172.213 306.274C172.025 311.281 169.189 316.149 170.18 321.069C170.321 321.761 170.701 322.577 171.401 322.587C178.481 322.677 185.096 320.678 192.101 321.723C192.815 305.248 193.51 288.698 196.702 272.524C199.519 258.126 204.294 243.889 203.848 229.21C203.59 220.815 201.627 212.582 200.435 204.269C192.949 202.579 185.117 203.654 178.34 207.299V207.299Z" fill="black"/>
<path d="M209.618 322.4C209.9 322.824 210.214 323.224 210.557 323.598C211.086 324.015 211.696 324.313 212.346 324.472L217.266 326.061C219.093 326.653 221.121 327.416 221.896 329.192C222.769 331.196 221.525 333.635 219.684 334.775C217.844 335.916 215.59 336.083 213.435 336.169C201.369 336.641 189.292 335.601 177.476 333.072C177.232 333.036 176.998 332.951 176.786 332.823C175.847 332.179 176.65 330.738 177.462 329.96C180.631 326.906 184.077 323.703 188.392 322.997C190.66 322.62 192.937 322.773 195.19 322.224C196.81 321.828 198.341 321.145 199.956 320.74C202.965 319.99 207.468 319.723 209.618 322.4Z" fill="#46455B"/>
<path d="M180.781 207.772C178.969 210.158 178.434 213.308 178.678 216.295C178.922 219.283 179.913 222.151 180.885 224.981C179.593 226.189 179.861 228.269 180.03 230.045C180.645 236.64 178.392 243.221 178.72 249.836C178.856 252.618 179.453 255.362 179.593 258.145C179.748 261.185 179.368 264.225 179.011 267.246C176.732 286.585 175.478 306.035 175.255 325.512C175.255 327.306 175.227 329.13 175.725 330.848C179.138 333.401 183.425 333.744 187.556 332.79C191.688 331.835 195.458 329.707 199.162 327.607C201.192 326.539 203.116 325.277 204.909 323.837C205.457 323.442 205.863 322.876 206.064 322.224C206.458 320.315 203.848 319.451 202.35 318.215C200.172 316.416 200.205 313.085 200.43 310.24L201.792 292.983C202.101 289.075 202.402 285.09 201.529 281.272C201.172 279.725 200.622 278.136 200.951 276.58C201.486 274.051 204.059 272.638 205.81 270.753C208.458 267.89 209.275 263.829 209.886 259.963C212.762 241.624 213.374 222.991 211.707 204.498C208.257 205.715 204.167 205.052 200.529 205.338C196.89 205.624 193.275 206.86 189.589 206.96C186.519 207.032 182.669 205.309 180.781 207.772Z" fill="#BBBDC8"/>
<path d="M205.641 122.651C215.235 122.651 223.013 114.745 223.013 104.993C223.013 95.2409 215.235 87.3352 205.641 87.3352C196.047 87.3352 188.27 95.2409 188.27 104.993C188.27 114.745 196.047 122.651 205.641 122.651Z" fill="#FDA8A8"/>
<path d="M215.459 134.038C209.892 131.439 204.088 129.403 198.129 127.958C193.932 126.941 189.138 126.331 185.631 128.884C184.692 129.566 183.842 130.64 184.044 131.795C184.663 131.816 185.255 132.059 185.713 132.483C186.171 132.906 186.467 133.481 186.547 134.105C186.65 135.117 186.162 136.085 185.683 136.968L181.631 144.604C180.855 145.98 180.188 147.416 179.636 148.899C178.819 151.324 178.64 153.92 178.467 156.478L177.997 163.407C177.706 167.774 177.41 172.16 177.8 176.517C178.091 179.805 178.767 183.108 178.307 186.377C177.936 189.007 176.842 191.474 176.227 194.061C175.072 198.929 175.598 204.264 173.359 208.731C174.268 208.304 175.295 208.21 176.265 208.464C183.063 209.738 188.411 215.193 195.012 217.278C196.679 214.806 198.937 212.983 200.801 210.683C202.187 208.959 203.105 206.895 203.463 204.698C204.871 206.607 206.069 208.096 206.909 210.311C207.059 210.826 207.315 211.303 207.66 211.709C208.548 212.587 210.008 212.248 211.196 211.881C217.019 210.095 223.039 209.058 229.116 208.793C230.093 208.75 230.567 208.273 230.872 207.328C231.178 206.383 231.009 205.362 230.825 204.388C229.656 198.027 228.351 191.655 228.135 185.189C228.004 181.371 228.262 177.5 227.788 173.692C227.553 171.826 227.145 169.989 226.741 168.156L223.389 153.013C223.201 152.168 222.309 151.615 221.928 150.837C220.388 147.668 217.445 145.377 215.923 142.199C214.774 139.632 214.609 136.722 215.459 134.038V134.038Z" fill="#46455B"/>
<path d="M191.087 112.061C191.067 111.814 191.124 111.566 191.251 111.355C191.437 111.156 191.67 111.01 191.927 110.93C192.627 110.592 193.2 110.031 193.558 109.333C193.917 108.635 194.041 107.836 193.913 107.06L195.557 106.711L195.608 100.894C198.05 99.5191 201.378 100.56 203.674 98.9417C204.965 98.0254 205.627 96.4696 206.416 95.0856C207.205 93.7016 208.379 92.308 209.947 92.1935C209.407 93.5878 209.176 95.0856 209.27 96.5807C209.363 98.0759 209.778 99.532 210.487 100.846C212.131 100 213.504 98.6956 214.445 97.0852L215.261 101.858C215.278 102.152 215.402 102.429 215.609 102.636C216.036 102.955 216.614 102.554 216.989 102.158L219.116 100.035C220.011 102.318 220.625 104.704 220.942 107.141C224.436 103.695 225.52 98.159 224.177 93.4057C222.835 88.6524 219.318 84.7151 215.083 82.286C210.848 79.8568 205.937 78.8355 201.078 78.6541C199.447 78.5571 197.81 78.6645 196.204 78.9739C194.482 79.4143 192.815 80.0549 191.237 80.8829C188.81 82.0426 186.359 83.3168 184.547 85.3212C181.392 88.8146 180.683 93.9497 181.03 98.684C181.5 104.888 183.481 110.877 185.786 116.643C186.551 118.552 187.368 120.484 188.631 122.112C190.533 124.56 195.204 122.527 194.608 117.688C194.195 114.232 191.087 115.564 191.087 112.061Z" fill="#3F3D56"/>
<path d="M197.66 206.598C191.801 218.767 182.803 229.092 171.626 236.473C168.25 238.692 164.584 240.668 160.635 241.317C160.095 241.408 159.555 241.47 159.006 241.508C156.97 241.679 154.924 241.327 153.057 240.482C151.822 239.849 150.678 239.046 149.658 238.096C146.004 234.845 143.101 230.815 141.155 226.294C140.012 223.456 139.063 220.541 138.315 217.57C137.163 213.414 136.014 209.258 134.869 205.099C133.747 201.033 132.615 196.919 132.38 192.691C132 185.823 134.028 179.023 136.878 172.785C137.364 171.825 137.756 170.817 138.047 169.779C138.047 169.707 138.08 169.635 138.094 169.559C138.432 167.913 138.259 166.19 138.564 164.529C139.137 161.188 141.559 158.42 144.404 156.659C147.25 154.898 150.508 153.996 153.743 153.118L158.781 151.739L161.907 150.885L174.626 147.406C176.387 146.928 178.166 146.294 179.955 145.974C181.95 145.592 181.936 145.792 182.091 147.778C182.378 151.376 182.284 154.913 183.03 158.478C183.739 161.88 184.988 165.159 185.927 168.5C188.298 176.932 188.692 185.809 190.561 194.376C190.988 196.328 191.58 198.408 193.125 199.625C194.895 201.057 197.876 201.41 198.345 203.653C198.519 204.651 198.082 205.672 197.66 206.598Z" fill="#28A745"/>
<path opacity="0.1" d="M160.635 241.298C160.095 241.389 159.555 241.451 159.006 241.489C156.971 241.666 154.926 241.32 153.057 240.482C151.822 239.849 150.678 239.046 149.658 238.096C146.004 234.845 143.101 230.815 141.155 226.294C140.012 223.456 139.063 220.541 138.315 217.57C137.163 213.414 136.014 209.258 134.869 205.099C133.747 201.033 132.615 196.919 132.38 192.691C132 185.823 134.028 179.023 136.878 172.785C137.364 171.825 137.756 170.817 138.047 169.779C138.047 169.707 138.08 169.635 138.094 169.559C145.757 170.929 154.949 185.828 159.691 205.352C163.184 219.951 163.335 233.395 160.635 241.298Z" fill="black"/>
<path opacity="0.1" d="M174.485 189.928L173.204 190.152C171.884 186.63 170.57 183.103 169.025 179.677C168.222 177.887 167.354 176.121 166.678 174.274C164.142 167.182 164.574 158.769 159.874 152.927C159.539 152.493 159.156 152.1 158.734 151.753L161.86 150.899C164.599 155.3 166.53 160.168 167.56 165.269C168.067 167.76 168.354 170.308 169.18 172.704C169.883 174.521 170.687 176.296 171.588 178.021C173.373 181.738 174.715 185.8 174.485 189.928Z" fill="black"/>
<path d="M186.965 136.157C190.34 133.217 194.946 131.604 199.317 132.339C201.89 132.764 204.28 133.943 206.585 135.202C211.078 137.627 215.506 140.419 218.745 144.404C220.688 146.917 222.301 149.676 223.543 152.612C224.153 153.895 224.625 155.241 224.952 156.626C226.098 162.019 223.285 167.378 220.576 172.16L215.365 181.352C212.97 185.575 210.557 189.828 207.44 193.536C206.003 195.244 204.425 196.824 202.853 198.404L195.946 205.333C195.822 205.482 195.659 205.593 195.477 205.653C195.326 205.661 195.175 205.636 195.035 205.579C194.895 205.522 194.768 205.435 194.664 205.324L192.383 203.477C194.484 202.001 196.438 200.317 198.214 198.451C201.2 195.311 203.655 191.698 206.097 188.1L213.693 176.904C215.914 173.625 218.233 170.017 217.985 166.047C217.867 164.138 217.163 162.343 216.426 160.592C215.121 157.477 213.703 154.411 212.172 151.395C210.454 148.012 208.576 144.671 206.101 141.812C203.627 138.954 200.5 136.563 196.899 135.527C195.825 135.17 194.687 135.059 193.566 135.202C191.096 135.618 189.34 137.775 187.777 139.779L183.016 145.983C181.932 147.391 180.936 149.023 180.871 146.351C180.758 142.538 184.551 138.61 186.965 136.157Z" fill="#28A745"/>
<path d="M188.439 178.011C189.378 181.686 190.763 185.857 194.242 187.25C196.707 188.238 199.594 187.437 201.726 185.819C203.857 184.201 205.369 181.92 206.759 179.615C207.935 177.543 209.232 175.545 210.642 173.63C213.426 170.079 217.215 167.264 219.093 163.131C219.647 161.899 220.032 160.582 220.661 159.399C221.333 158.307 222.093 157.275 222.933 156.311C225.095 153.589 226.823 150.539 228.055 147.272C228.487 146.131 228.858 144.91 228.689 143.702C228.356 141.378 226.191 139.851 224.177 138.71C222.952 138.018 221.67 137.345 220.276 137.24C218.238 137.078 216.233 138.195 214.98 139.832C213.773 141.525 213.099 143.55 213.045 145.64C212.905 148.183 213.393 150.827 212.576 153.233C212.144 154.355 211.547 155.404 210.806 156.344C208.169 159.931 204.904 162.993 201.176 165.378C201.074 163.573 200.689 161.796 200.036 160.114C199.679 159.189 192.683 160.114 191.772 160.267C189.969 160.534 186.476 160.744 185.34 162.491C184.204 164.238 185.613 167.173 186.073 168.934L188.439 178.011Z" fill="#FDA8A8"/>
<path d="M188.27 137.908C187.231 138.781 186.263 139.739 185.378 140.772C183.293 143.325 182.274 146.647 182.011 149.954C181.749 153.261 182.195 156.583 182.753 159.852C183.26 162.785 183.86 165.698 184.551 168.59C184.744 166.409 186.481 164.605 188.495 163.818C190.509 163.03 192.721 163.116 194.866 163.436C197.628 163.852 200.322 164.643 202.876 165.789L203.867 151.677C204.075 149.773 204.064 147.851 203.834 145.95C203.522 144.186 202.844 142.509 201.845 141.032C200.846 139.555 199.549 138.311 198.04 137.383C194.275 135.055 191.65 134.907 188.27 137.908Z" fill="#46455B"/>
<path d="M365.638 206.579C365.192 202.749 364.096 199.027 362.398 195.578C361.361 193.478 360.098 191.469 359.445 189.221C358.915 187.394 358.811 185.47 358.389 183.614C357.966 181.757 357.22 179.982 356.619 178.169C352.37 165.283 355.562 151.185 354.192 137.679C353.68 132.697 352.177 127.233 347.928 124.636C345.402 123.095 342.369 122.856 339.398 122.727L338.041 122.665L335.862 122.556C332.707 122.398 329.543 122.279 326.472 122.952C322.716 123.787 318.265 126.474 317.082 130.373C316.434 130.034 315.782 129.733 315.181 129.452C312.762 128.361 310.227 127.56 307.626 127.066C309.857 126.494 312.011 125.648 314.04 124.546C318.735 121.768 319.824 113.655 320.782 108.229C321.74 102.803 320.866 97.195 319.275 91.9215C318.749 90.0502 318.033 88.2396 317.138 86.5191C315.903 84.2528 314.22 82.27 312.197 80.6944C310.173 79.1187 307.851 77.9842 305.377 77.3617C302.903 76.7392 300.328 76.642 297.815 77.0762C295.302 77.5104 292.904 78.4668 290.771 79.8854C286.391 82.8014 282.32 87.0441 278.977 91.1436C278.508 91.7067 276.545 93.7016 277.198 94.5415C277.564 95.0188 278.771 94.637 280.039 94.0643C279.063 96.3037 278.561 98.7262 278.564 101.175C278.567 104.251 279.358 107.273 280.858 109.944C282.359 112.616 284.518 114.843 287.123 116.409L287.593 120.799V120.833C287.644 122.298 287.668 123.763 287.687 125.223C287.687 126.249 287.687 127.299 287.659 128.349C285.71 130.59 283.325 132.394 280.654 133.647C282.86 134.019 284.964 133.494 287.011 132.597C286.678 133.769 286.119 134.862 285.367 135.813C285.931 135.613 286.494 135.432 287.058 135.241C286.763 135.722 286.501 136.222 286.273 136.739C285.926 137.556 285.673 138.412 285.518 139.288C284.322 141.063 283.287 142.945 282.424 144.91V144.91C282.029 145.802 281.677 146.709 281.358 147.63V147.692C281.045 148.608 280.768 149.537 280.527 150.479C280.414 150.931 280.311 151.384 280.217 151.839C280.217 151.873 280.217 151.906 280.217 151.939C280.029 152.86 279.874 153.786 279.747 154.722C279.747 154.784 279.747 154.846 279.747 154.913C279.696 155.347 279.649 155.786 279.616 156.225C279.616 156.225 279.616 156.268 279.616 156.292C279.578 156.769 279.55 157.222 279.536 157.69C279.536 157.752 279.536 157.809 279.536 157.871C279.536 158.268 279.536 158.668 279.536 159.065V159.337C279.536 160.234 279.592 161.136 279.677 162.038C279.677 162.148 279.677 162.262 279.71 162.372C279.747 162.739 279.79 163.107 279.841 163.479C279.841 163.565 279.841 163.651 279.874 163.732C279.935 164.176 280.006 164.615 280.085 165.054C280.085 165.149 280.128 165.25 280.147 165.345C280.212 165.698 280.283 166.047 280.362 166.4L280.447 166.762C280.55 167.202 280.658 167.636 280.78 168.075C280.851 168.323 280.921 168.552 280.996 168.815C281.22 169.719 281.377 170.64 281.466 171.568L278.898 171.654C273.401 171.813 267.91 172.066 262.423 172.413C261.737 169.726 259.399 168.175 256.455 167.808C255.988 167.75 255.518 167.722 255.047 167.722V167.722C255.555 167.287 256.006 166.788 256.39 166.237C256.901 165.523 257.265 164.712 257.46 163.851C256.704 164.289 256.042 164.878 255.516 165.584C255.343 165.822 255.188 166.061 255.047 166.28V164.849C255.048 164.818 255.042 164.788 255.031 164.76C255.02 164.732 255.003 164.707 254.982 164.685C254.961 164.664 254.936 164.647 254.909 164.636C254.881 164.624 254.851 164.619 254.822 164.62H254.352C254.322 164.619 254.293 164.624 254.265 164.636C254.237 164.647 254.212 164.664 254.191 164.685C254.17 164.707 254.154 164.732 254.143 164.76C254.132 164.788 254.126 164.818 254.127 164.849V167.765H254.033H253.873C253.563 167.793 253.263 167.831 252.967 167.889C249.77 168.495 247.427 170.58 247.427 174.093C247.428 175.199 247.665 176.292 248.122 177.295C248.58 178.299 249.246 179.19 250.075 179.906C250.213 181 250.456 182.077 250.803 183.122C251.127 184.158 251.549 185.284 252.498 185.8C253.077 186.067 253.712 186.185 254.347 186.143C259.568 186.143 264.507 183.695 269.705 183.28C272.916 183.017 276.142 183.523 279.362 183.423C279.832 183.423 280.301 183.375 280.771 183.337C276.367 205.505 271.038 227.954 273.822 250.347C274.005 251.836 274.292 253.449 275.386 254.46C276.837 255.806 279.071 255.587 281.02 255.415C286.367 254.919 291.758 255.357 296.959 256.708C297.691 256.914 298.46 256.941 299.204 256.789C299.363 256.753 299.519 256.706 299.673 256.651L299.805 256.598C299.903 256.56 299.997 256.522 300.086 256.479L300.222 256.408L300.452 256.264C300.49 256.236 300.532 256.212 300.565 256.183C300.647 256.126 300.724 256.062 300.795 255.992L300.861 255.935C300.949 255.848 301.032 255.755 301.11 255.658L301.166 255.572C301.22 255.501 301.271 255.426 301.316 255.348C301.34 255.31 301.363 255.272 301.382 255.233C301.401 255.195 301.457 255.09 301.49 255.019C301.523 254.947 301.528 254.933 301.542 254.89C301.556 254.847 301.603 254.732 301.631 254.651C301.659 254.57 301.631 254.575 301.668 254.532C301.706 254.489 301.734 254.293 301.758 254.174V254.098C301.758 253.997 301.795 253.892 301.809 253.792C301.823 253.692 301.809 253.687 301.809 253.635C301.809 253.582 301.809 253.477 301.809 253.401V253.229C301.809 253.153 301.809 253.076 301.809 253V252.575C301.809 252.528 301.809 252.475 301.809 252.423C301.809 251.998 301.762 251.568 301.72 251.158C302.056 251.257 302.398 251.332 302.744 251.382V251.382C303.067 251.434 303.393 251.458 303.72 251.454H303.767C303.922 251.454 304.077 251.454 304.237 251.416C304.373 251.394 304.507 251.366 304.64 251.33H304.701C304.824 251.293 304.944 251.245 305.058 251.186L305.115 251.153C305.212 251.098 305.305 251.034 305.392 250.962L305.434 250.929C305.522 250.846 305.601 250.753 305.669 250.652L305.711 250.58C305.78 250.465 305.836 250.342 305.875 250.213C306.143 249.292 305.532 248.251 306.509 247.407C307.448 250.466 308.387 253.53 308.542 256.694C308.594 257.849 308.542 259.08 309.209 260.035C309.643 260.556 310.113 261.044 310.617 261.495C312.054 263.075 312.087 265.456 311.988 267.594C311.946 268.458 311.899 269.322 311.838 270.185C311.062 281.713 308.756 293.08 304.983 303.979C304.615 305.139 304.134 306.258 303.546 307.32C302.594 308.823 301.402 310.155 300.02 311.262C298.063 312.951 295.966 314.467 293.753 315.791C292.622 316.398 291.554 317.119 290.565 317.943C290.527 317.833 290.485 317.728 290.457 317.614C290.405 317.394 290.335 317.136 290.123 317.055C289.963 317.018 289.795 317.046 289.654 317.132C287.452 318.115 285.25 319.098 283.133 320.248C282.064 320.743 281.122 321.483 280.381 322.41C279.705 323.364 279.503 324.796 280.203 325.751C280.818 326.586 281.921 326.863 282.94 327.049C284.245 327.283 285.555 327.45 286.865 327.574C286.192 327.975 285.603 328.507 285.133 329.139C284.457 330.094 284.255 331.525 284.954 332.48C285.569 333.315 286.673 333.592 287.691 333.778C296.016 335.272 304.551 334.255 313.002 334.002C315.749 333.912 318.556 333.892 321.157 332.986C321.67 332.832 322.149 332.577 322.566 332.236C323.749 331.177 323.632 329.316 323.425 327.736L322.566 321.284C322.439 321.284 322.317 321.327 322.195 321.355C322.915 315.294 324.206 309.317 326.05 303.506C328.914 294.463 333.177 285.553 333.12 276.089C333.12 275.86 333.12 275.612 333.12 275.402C333.04 272.438 332.519 269.508 332.181 266.558C331.651 261.624 331.712 256.646 331.745 251.688C331.704 249.743 331.837 247.799 332.144 245.88C332.144 245.813 332.172 245.751 332.186 245.684L339.984 245.474C340.849 245.518 341.711 245.355 342.501 244.997C342.875 244.83 343.175 244.529 343.343 244.151C343.511 243.773 343.535 243.345 343.412 242.949C346.736 244.481 351.182 242.396 352.163 238.845C352.231 238.595 352.286 238.342 352.328 238.086C352.325 238.067 352.325 238.048 352.328 238.029C352.36 237.79 352.384 237.552 352.393 237.318C352.393 237.28 352.393 237.237 352.393 237.199C352.442 235.559 352.192 233.925 351.656 232.378C350.06 227.783 347.525 223.597 345.14 219.364C343.909 217.173 342.717 214.954 341.557 212.726L342.576 214.057C342.934 214.6 343.403 215.058 343.952 215.398C345.853 216.396 347.844 214.386 349.778 213.461C352.346 212.229 355.351 212.955 358.187 213.16C361.023 213.365 364.441 212.621 365.455 209.948C365.784 208.857 365.846 207.7 365.638 206.579V206.579ZM316.749 134.854C316.749 135.875 316.815 136.911 316.894 137.951C315.941 136.368 314.841 134.882 313.608 133.513L316.749 134.854Z" fill="url(#paint1_linear)"/>
<path d="M255.409 166.443C255.928 165.743 256.581 165.157 257.329 164.72C257.138 165.579 256.779 166.391 256.272 167.106C255.455 168.237 254.596 169.015 254.357 168.829C254.117 168.643 254.582 167.574 255.409 166.443Z" fill="#99D55C"/>
<path opacity="0.1" d="M255.512 166.529C255.892 166.009 256.371 165.572 256.92 165.245C256.777 165.881 256.511 166.481 256.136 167.011C255.526 167.851 254.887 168.442 254.728 168.294C254.568 168.146 254.901 167.369 255.512 166.529Z" fill="black"/>
<path d="M254.268 165.493H254.737C254.767 165.493 254.796 165.499 254.823 165.51C254.851 165.522 254.876 165.539 254.896 165.56C254.917 165.581 254.934 165.607 254.945 165.634C254.957 165.662 254.962 165.692 254.962 165.722V171.129H254.07V165.722C254.07 165.666 254.09 165.612 254.126 165.569C254.163 165.527 254.213 165.5 254.268 165.493V165.493Z" fill="#F6987E"/>
<path d="M262.451 174.947C262.451 176.972 261.66 178.915 260.251 180.347C258.842 181.779 256.931 182.583 254.939 182.583C252.947 182.583 251.036 181.779 249.627 180.347C248.218 178.915 247.427 176.972 247.427 174.947C247.427 171.449 249.742 169.378 252.901 168.772C253.573 168.646 254.256 168.583 254.939 168.586C255.41 168.585 255.88 168.614 256.348 168.671C259.822 169.11 262.451 171.22 262.451 174.947Z" fill="#FC4A4A"/>
<path opacity="0.1" d="M256.348 168.671C256.211 168.934 255.474 169.149 254.582 169.149C254 169.192 253.418 169.068 252.901 168.791C253.573 168.665 254.256 168.602 254.939 168.605C255.409 168.598 255.88 168.62 256.348 168.671Z" fill="black"/>
<path opacity="0.1" d="M256.193 182.402C254.2 182.402 252.29 181.597 250.881 180.165C249.472 178.733 248.681 176.791 248.681 174.766C248.681 171.33 250.911 169.273 253.981 168.628C253.619 168.656 253.259 168.704 252.901 168.772C249.742 169.378 247.427 171.449 247.427 174.947C247.427 176.972 248.218 178.915 249.627 180.347C251.036 181.779 252.947 182.583 254.939 182.583C255.506 182.584 256.072 182.518 256.625 182.387C256.479 182.397 256.348 182.402 256.193 182.402Z" fill="black"/>
<path d="M289.306 323.737C290.344 324.691 291.931 324.667 293.339 324.562L299.758 324.085C304.856 323.703 310.129 323.274 314.627 320.806C315.103 320.585 315.524 320.259 315.861 319.852C316.219 319.228 316.405 318.517 316.401 317.795C317.009 310.726 318.392 303.749 320.524 296.992C323.341 287.996 327.566 279.129 327.51 269.713C327.51 269.484 327.51 269.236 327.51 269.031C327.43 266.081 326.918 263.165 326.604 260.23C326.082 255.319 326.134 250.37 326.172 245.436C326.132 243.501 326.264 241.567 326.566 239.656C326.862 238.105 327.975 236.549 327.294 235.185C325.974 232.536 321.19 231.562 318.617 231.467C315.153 231.343 311.744 232.264 308.396 233.18C307.378 233.462 306.312 233.762 305.542 234.493C304.509 235.476 304.213 237.017 304.176 238.454C303.997 244.825 307.608 250.752 307.894 257.114C307.946 258.259 307.894 259.5 308.551 260.454C308.985 260.974 309.456 261.461 309.96 261.91C311.368 263.48 311.411 265.847 311.312 267.976C311.27 268.835 311.223 269.694 311.166 270.553C310.399 282.018 308.121 293.326 304.392 304.175C304.032 305.333 303.56 306.452 302.983 307.515C302.041 309.008 300.864 310.333 299.499 311.438C297.565 313.117 295.494 314.624 293.307 315.943C291.846 316.822 290.288 317.661 289.288 319.055C288.288 320.449 288.067 322.563 289.306 323.737Z" fill="#FDA8A8"/>
<path opacity="0.1" d="M289.306 323.737C290.344 324.691 291.931 324.667 293.339 324.562L299.758 324.085C304.856 323.703 310.129 323.274 314.627 320.806C315.103 320.585 315.524 320.259 315.861 319.852C316.219 319.228 316.405 318.517 316.401 317.795C317.009 310.726 318.392 303.749 320.524 296.992C323.341 287.996 327.566 279.129 327.51 269.713C327.51 269.484 327.51 269.236 327.51 269.031C327.43 266.081 326.918 263.165 326.604 260.23C326.082 255.319 326.134 250.37 326.172 245.436C326.132 243.501 326.264 241.567 326.566 239.656C326.862 238.105 327.975 236.549 327.294 235.185C325.974 232.536 321.19 231.562 318.617 231.467C315.153 231.343 311.744 232.264 308.396 233.18C307.378 233.462 306.312 233.762 305.542 234.493C304.509 235.476 304.213 237.017 304.176 238.454C303.997 244.825 307.608 250.752 307.894 257.114C307.946 258.259 307.894 259.5 308.551 260.454C308.985 260.974 309.456 261.461 309.96 261.91C311.368 263.48 311.411 265.847 311.312 267.976C311.27 268.835 311.223 269.694 311.166 270.553C310.399 282.018 308.121 293.326 304.392 304.175C304.032 305.333 303.56 306.452 302.983 307.515C302.041 309.008 300.864 310.333 299.499 311.438C297.565 313.117 295.494 314.624 293.307 315.943C291.846 316.822 290.288 317.661 289.288 319.055C288.288 320.449 288.067 322.563 289.306 323.737Z" fill="black"/>
<path d="M289.306 323.737C290.344 324.691 291.931 324.667 293.339 324.562L299.758 324.085C304.856 323.703 310.129 323.274 314.627 320.806C315.103 320.585 315.524 320.259 315.861 319.852C316.219 319.228 316.405 318.517 316.401 317.795C317.009 310.726 318.392 303.749 320.524 296.992C323.341 287.996 327.566 279.129 327.51 269.713C322.083 270.323 316.626 270.597 311.166 270.534C310.399 281.999 308.121 293.307 304.392 304.155C304.032 305.314 303.56 306.433 302.983 307.496C302.041 308.989 300.864 310.314 299.499 311.419C297.565 313.098 295.494 314.605 293.307 315.924C291.846 316.802 290.288 317.642 289.288 319.036C288.288 320.429 288.067 322.563 289.306 323.737Z" fill="#EEEFF3"/>
<path opacity="0.1" d="M289.306 323.737C290.344 324.691 291.931 324.667 293.339 324.562L299.758 324.085C304.856 323.703 310.129 323.274 314.627 320.806C315.103 320.585 315.524 320.259 315.861 319.852C316.219 319.228 316.405 318.517 316.401 317.795C317.009 310.726 318.392 303.749 320.524 296.992C323.341 287.996 327.566 279.129 327.51 269.713C322.083 270.323 316.626 270.597 311.166 270.534C310.399 281.999 308.121 293.307 304.392 304.155C304.032 305.314 303.56 306.433 302.983 307.496C302.041 308.989 300.864 310.314 299.499 311.419C297.565 313.098 295.494 314.605 293.307 315.924C291.846 316.802 290.288 317.642 289.288 319.036C288.288 320.429 288.067 322.563 289.306 323.737Z" fill="black"/>
<path d="M303.485 321.723C305.027 321.161 306.509 320.441 307.908 319.575L314.983 315.519C315.623 315.098 316.335 314.805 317.082 314.655L317.927 321.074C318.138 322.649 318.251 324.5 317.082 325.555C316.665 325.894 316.186 326.147 315.674 326.299C313.105 327.201 310.335 327.221 307.617 327.306C299.269 327.579 290.837 328.571 282.611 327.082C281.607 326.901 280.517 326.605 279.912 325.794C279.222 324.839 279.419 323.455 280.085 322.486C280.816 321.565 281.747 320.829 282.804 320.334C284.898 319.189 287.072 318.215 289.245 317.237C289.38 317.156 289.539 317.129 289.691 317.16C289.903 317.232 289.968 317.494 290.025 317.714C290.405 319.279 291.645 320.515 293.058 321.255C293.077 321.255 300.359 322.734 303.485 321.723Z" fill="#F75842"/>
<path opacity="0.1" d="M303.358 321.57C304.9 321.008 306.382 320.289 307.781 319.422L314.856 315.366C315.495 314.945 316.208 314.652 316.955 314.502L317.8 320.921C318.011 322.496 318.124 324.348 316.955 325.402C316.537 325.741 316.059 325.994 315.546 326.147C312.978 327.049 310.208 327.068 307.49 327.154C299.142 327.426 290.71 328.418 282.484 326.929C281.479 326.748 280.39 326.452 279.784 325.641C279.094 324.686 279.291 323.302 279.958 322.334C280.689 321.413 281.619 320.676 282.677 320.181C284.77 319.036 286.944 318.062 289.118 317.084C289.252 317.003 289.411 316.976 289.564 317.008C289.775 317.079 289.841 317.342 289.897 317.561C290.278 319.127 291.517 320.363 292.93 321.102C292.949 321.102 300.231 322.582 303.358 321.57Z" fill="#F75842"/>
<path d="M294.001 330.418C295.039 331.373 296.626 331.349 298.034 331.244L304.453 330.766C309.551 330.385 314.824 329.955 319.322 327.488C319.798 327.267 320.219 326.941 320.556 326.533C320.914 325.909 321.1 325.199 321.096 324.476C321.704 317.408 323.087 310.43 325.219 303.673C328.036 294.677 332.261 285.81 332.205 276.394C332.205 276.165 332.205 275.917 332.205 275.712C332.125 272.763 331.613 269.847 331.299 266.912C330.777 262.001 330.829 257.052 330.867 252.117C330.827 250.182 330.959 248.248 331.261 246.338C331.557 244.787 332.67 243.231 331.989 241.866C330.669 239.217 325.885 238.244 323.312 238.148C319.848 238.024 316.439 238.945 313.091 239.862C312.073 240.143 311.007 240.444 310.237 241.174C309.204 242.157 308.908 243.699 308.871 245.135C308.692 251.506 312.303 257.434 312.589 263.795C312.641 264.941 312.589 266.181 313.246 267.136C313.68 267.656 314.151 268.142 314.655 268.591C316.063 270.162 316.106 272.529 316.007 274.657C315.965 275.516 315.918 276.375 315.861 277.234C315.094 288.699 312.816 300.008 309.087 310.856C308.727 312.014 308.255 313.133 307.678 314.197C306.736 315.689 305.559 317.015 304.194 318.12C302.26 319.798 300.189 321.306 298.002 322.625C296.541 323.503 294.983 324.343 293.983 325.736C292.983 327.13 292.762 329.244 294.001 330.418Z" fill="#FDA8A8"/>
<path d="M294.001 330.418C295.039 331.373 296.626 331.349 298.034 331.244L304.453 330.766C309.551 330.385 314.824 329.955 319.322 327.488C319.798 327.267 320.219 326.941 320.556 326.533C320.914 325.909 321.1 325.199 321.096 324.476C321.704 317.408 323.087 310.43 325.219 303.673C328.036 294.677 332.261 285.81 332.205 276.394C326.778 277.004 321.321 277.278 315.861 277.215C315.094 288.68 312.816 299.989 309.087 310.837C308.727 311.995 308.255 313.114 307.678 314.178C306.736 315.67 305.559 316.996 304.194 318.1C302.26 319.779 300.189 321.286 298.002 322.606C296.541 323.484 294.983 324.324 293.983 325.717C292.983 327.111 292.762 329.244 294.001 330.418Z" fill="#EEEFF3"/>
<path d="M308.18 328.404C309.722 327.842 311.204 327.123 312.603 326.257L319.679 322.2C320.318 321.779 321.03 321.486 321.777 321.336L322.622 327.755C322.834 329.33 322.946 331.182 321.777 332.236C321.36 332.575 320.881 332.828 320.369 332.981C317.801 333.883 315.03 333.902 312.312 333.988C303.964 334.26 295.532 335.253 287.306 333.764C286.302 333.582 285.212 333.286 284.607 332.475C283.917 331.52 284.114 330.136 284.78 329.168C285.511 328.247 286.442 327.51 287.499 327.015C289.593 325.87 291.767 324.896 293.94 323.918C294.075 323.837 294.234 323.81 294.386 323.842C294.598 323.913 294.663 324.176 294.72 324.395C295.1 325.961 296.34 327.197 297.753 327.936C297.772 327.936 305.054 329.416 308.18 328.404Z" fill="#F75842"/>
<path d="M284.898 136.83C287.184 133.966 287.245 129.967 287.189 126.292C287.189 124.861 287.147 123.381 287.095 121.926V121.892C287.032 119.217 286.754 116.552 286.264 113.922V113.922C286.017 112.661 285.688 111.417 285.278 110.2C285.588 110.128 285.898 110.061 286.217 110.004C291.139 109.016 296.202 109.016 301.124 110.004C301.974 110.176 304.124 110.138 305.349 110.563C305.698 110.647 306.002 110.864 306.199 111.169C306.439 111.679 305.946 113.159 305.589 114.471C305.393 115.063 305.282 115.68 305.26 116.304C305.308 116.89 305.395 117.472 305.523 118.046C305.744 119.1 306.035 120.146 306.171 121.215C306.41 123.038 306.199 124.894 306.316 126.731C306.434 128.569 306.955 130.502 308.331 131.7C300.338 132.396 292.464 134.12 284.898 136.83V136.83Z" fill="#FDA8A8"/>
<path opacity="0.1" d="M307.396 117.836C306.772 117.888 306.152 117.95 305.518 118.022C299.265 118.7 293.093 120.011 287.095 121.935V121.902L286.264 113.932C286.264 113.455 286.264 112.977 286.264 112.476C286.264 111.66 286.241 110.835 286.222 110.014C291.143 109.026 296.207 109.026 301.129 110.014C301.978 110.185 304.129 110.147 305.354 110.572C305.354 111.35 305.354 112.128 305.382 112.906C305.413 113.435 305.484 113.962 305.593 114.481V114.481C305.818 115.769 306.451 116.947 307.396 117.836V117.836Z" fill="black"/>
<path d="M295.551 120.026C305.145 120.026 312.922 112.12 312.922 102.368C312.922 92.6161 305.145 84.7103 295.551 84.7103C285.957 84.7103 278.179 92.6161 278.179 102.368C278.179 112.12 285.957 120.026 295.551 120.026Z" fill="#FDA8A8"/>
<path d="M280.292 168.948C277.207 157.852 280.024 145.936 287.391 137.173C289.029 135.222 290.677 133.217 292.828 132.048C295.387 130.664 298.415 130.616 301.312 130.588C303.87 130.588 306.509 130.588 308.861 131.623C312.04 133.002 314.232 135.999 316.082 138.973C318.054 142.142 319.838 145.573 320.139 149.315C320.298 151.534 319.913 153.786 320.237 155.996C320.65 158.797 322.186 161.308 322.815 164.066C323.158 165.555 323.228 167.097 323.449 168.614C323.781 170.69 324.264 172.738 324.895 174.742C329.56 190.486 335.947 205.649 343.938 219.946C346.285 224.16 348.797 228.327 350.374 232.894C351.088 234.96 351.605 237.189 351.022 239.317C350.051 242.849 345.661 244.925 342.379 243.403C342.5 243.795 342.476 244.219 342.309 244.594C342.143 244.969 341.847 245.268 341.477 245.436C340.697 245.794 339.844 245.957 338.989 245.913L309.993 246.696C309.231 246.715 308.474 246.819 307.734 247.006C304.326 247.893 305.608 249.392 305.241 250.642C304.795 252.17 302.64 252.045 301.138 251.597C301.368 253.826 301.42 256.551 298.588 257.2C297.854 257.351 297.095 257.325 296.372 257.123C291.235 255.778 285.908 255.342 280.625 255.835C278.691 256.016 276.48 256.236 275.048 254.88C273.968 253.873 273.686 252.27 273.503 250.79C270.616 227.406 276.555 203.987 281.015 180.884C281.616 177.768 281.4 172.718 280.499 169.674L280.292 168.948Z" fill="#F75842"/>
<path d="M318.791 152.832C319.472 154.827 320.322 156.788 320.552 158.888C320.735 160.568 320.514 162.267 320.613 163.952C320.793 165.822 321.172 167.667 321.744 169.454C322.648 172.93 323.763 176.346 325.082 179.681C325.712 181.185 326.439 182.841 325.932 184.392C325.425 185.943 323.852 186.902 323.402 188.444C322.932 190.071 323.871 191.784 325.068 192.973C326.266 194.161 327.763 195.006 328.871 196.27C330.078 197.65 330.749 199.411 331.599 201.043C332.806 203.201 334.189 205.253 335.735 207.175L341.412 214.663C341.766 215.203 342.23 215.659 342.773 215.999C344.651 216.992 346.618 214.992 348.529 214.09C351.065 212.864 354.032 213.585 356.835 213.79C359.638 213.995 363.013 213.255 364.013 210.592C364.345 209.512 364.414 208.365 364.215 207.252C363.776 203.444 362.693 199.741 361.013 196.308C359.99 194.218 358.741 192.219 358.098 189.98C357.572 188.162 357.469 186.248 357.051 184.401C356.633 182.554 355.896 180.789 355.304 178.985C351.107 166.166 354.262 152.14 352.905 138.701C352.403 133.742 350.914 128.306 346.717 125.724C344.224 124.193 341.229 123.954 338.266 123.816L336.928 123.753L334.773 123.644C331.655 123.486 328.529 123.367 325.491 124.04C321.218 124.994 316.077 128.368 315.908 133.217C315.725 139.877 316.701 146.517 318.791 152.832Z" fill="#28A745"/>
<path opacity="0.1" d="M334.796 123.625C335.373 126.872 335.66 130.166 335.656 133.465C335.74 142.886 336.74 152.269 337.745 161.623L338.407 167.827C338.529 168.972 338.674 170.175 339.346 171.096C340.017 172.017 341.426 172.499 342.313 171.788C342.858 169.597 342.75 167.297 342.642 165.04C342.407 160.239 342.174 155.436 341.942 150.632C341.717 145.955 341.473 141.273 340.914 136.625C340.476 133.024 339.83 129.453 338.98 125.93C338.818 125.2 338.594 124.486 338.308 123.796L336.97 123.734L334.796 123.625Z" fill="black"/>
<path d="M304.119 127.662C301.241 127.242 298.227 127.027 295.495 128.044C292.884 129.022 290.799 131.031 288.921 133.146C287.641 134.508 286.582 136.069 285.785 137.77C284.184 141.512 284.809 145.826 285.785 149.787C288.447 160.697 293.734 171.22 302.218 178.421C304.8 180.554 307.55 182.47 310.439 184.148C314.195 186.387 318.073 188.444 322.228 189.737C323.388 190.1 324.622 190.405 325.81 190.147C326.998 189.89 328.12 188.911 328.158 187.675C321.35 183.786 315.246 178.76 309.185 173.759C307.524 172.456 305.968 171.02 304.532 169.464C302.382 167.006 300.866 164.037 298.781 161.522C296.903 159.265 294.555 157.361 293.147 154.779C292.263 153.016 291.671 151.116 291.396 149.157C290.701 145.163 290.569 140.92 292.128 137.183C293.687 133.446 297.26 130.378 301.251 130.444C303.298 130.478 305.246 131.303 307.133 132.11L319.012 137.207C318.866 137.14 319.693 135.045 319.655 134.754C319.542 133.842 319.383 133.828 318.716 133.136C317.58 131.981 315.815 131.17 314.373 130.497C311.106 129.057 307.653 128.103 304.119 127.662V127.662Z" fill="#28A745"/>
<path d="M280.475 99.0276C283.864 98.2622 287 96.6181 289.579 94.2552L287.095 107.503C289.569 106.349 291.969 105.036 294.278 103.571C294.612 109.632 294.128 115.831 291.931 121.472C289.734 127.113 285.682 132.162 280.245 134.668C285.072 135.489 289.405 131.967 293.701 129.585C296.696 127.929 301.814 129.633 305.091 128.631C307.871 127.8 310.725 127.075 313.232 125.591C317.89 122.828 318.946 114.757 319.89 109.365C320.833 103.972 319.974 98.3881 318.406 93.1384C317.884 91.2793 317.178 89.4788 316.298 87.7647C315.089 85.5137 313.433 83.5423 311.436 81.9748C309.439 80.4074 307.143 79.278 304.695 78.6582C302.247 78.0384 299.698 77.9415 297.211 78.3737C294.724 78.8059 292.352 79.7578 290.245 81.1692C285.917 84.0661 281.902 88.3278 278.597 92.3701C278.128 92.9284 276.189 94.9138 276.832 95.7489C277.616 96.7607 282.217 93.8782 282.996 93.4868C282.771 94.3506 281.372 98.8033 280.475 99.0276Z" fill="#3F3D56"/>
<g opacity="0.1">
<path opacity="0.1" d="M300.011 253.382C299.277 253.533 298.518 253.507 297.795 253.305C292.658 251.96 287.331 251.524 282.048 252.017C280.114 252.198 277.902 252.418 276.47 251.062C275.39 250.055 275.109 248.452 274.926 246.972C272.038 223.588 277.977 200.169 282.438 177.066C283.039 173.95 282.823 168.901 281.921 165.856L281.71 165.116C279.972 158.807 280.075 152.12 282.006 145.869C278.803 153.123 278.196 161.288 280.292 168.948L280.503 169.688C281.405 172.733 281.621 177.801 281.02 180.898C276.574 204.002 270.634 227.434 273.508 250.805C273.691 252.284 273.977 253.888 275.052 254.895C276.461 256.236 278.696 256.016 280.63 255.849C285.913 255.357 291.24 255.792 296.377 257.138C297.1 257.339 297.859 257.365 298.593 257.214C300.903 256.684 301.293 254.771 301.236 252.876C300.861 253.118 300.446 253.29 300.011 253.382Z" fill="black"/>
<path opacity="0.1" d="M343.797 239.585C343.918 239.977 343.893 240.401 343.727 240.776C343.561 241.151 343.265 241.45 342.895 241.618C342.115 241.976 341.262 242.139 340.407 242.095L311.411 242.878C310.649 242.897 309.892 243.001 309.152 243.188C305.744 244.076 307.025 245.574 306.659 246.824C306.213 248.352 304.058 248.228 302.556 247.779C302.697 249.139 302.767 250.681 302.161 251.826C303.481 252.026 304.899 251.85 305.251 250.642C305.603 249.435 304.335 247.893 307.744 247.006C308.483 246.819 309.24 246.715 310.002 246.696L338.98 245.913C339.835 245.957 340.688 245.794 341.468 245.436C341.838 245.268 342.134 244.969 342.3 244.594C342.466 244.219 342.491 243.795 342.369 243.403C345.656 244.925 350.041 242.849 351.013 239.317C351.159 238.782 351.241 238.231 351.257 237.676C349.501 239.814 346.323 240.768 343.797 239.585Z" fill="black"/>
</g>
<path d="M304.899 139.86C307.393 145.251 309.598 150.774 311.504 156.406C313.044 160.945 314.401 165.713 313.89 170.485C313.378 175.257 310.603 180.077 306.096 181.581C304.18 182.22 302.129 182.225 300.114 182.273C295.29 182.388 290.476 182.783 285.696 183.456C283.471 183.83 281.229 184.084 278.977 184.215C275.794 184.32 272.611 183.814 269.437 184.077C264.301 184.502 259.423 186.94 254.268 186.94C253.639 186.98 253.01 186.862 252.437 186.597C251.498 186.081 251.08 184.964 250.76 183.934C250.042 181.605 249.479 178.932 250.695 176.827C252.192 174.236 255.596 173.716 258.549 173.487C265.198 173.01 271.854 172.675 278.517 172.485C284.203 172.322 290.363 172.103 294.771 168.447C295.069 168.231 295.312 167.946 295.48 167.617C295.647 167.058 295.627 166.459 295.424 165.913C293.677 158.972 292.927 151.811 293.199 144.652C293.168 144.01 293.332 143.374 293.668 142.829C294.067 142.392 294.585 142.086 295.156 141.951C299.093 140.667 303.307 140.548 307.307 141.607" fill="#FDA8A8"/>
<path d="M293.081 144.647C292.4 144.885 291.807 145.33 291.382 145.921C291.569 143.931 291.316 141.922 291.354 139.918C291.391 137.913 291.757 135.823 293.001 134.267C294.584 132.282 297.274 131.571 299.79 131.504C303.443 131.404 307.223 132.482 309.899 135.012C311.621 136.651 312.74 138.84 313.068 141.216C313.152 141.87 313.434 144.323 312.763 144.743C312.176 145.115 309.946 143.831 309.227 143.626C303.894 142.032 298.179 142.394 293.081 144.647Z" fill="#F75842"/>
<path opacity="0.1" d="M222.074 31.9752C223.889 31.9752 225.36 30.4795 225.36 28.6345C225.36 26.7895 223.889 25.2938 222.074 25.2938C220.259 25.2938 218.787 26.7895 218.787 28.6345C218.787 30.4795 220.259 31.9752 222.074 31.9752Z" fill="#6C63FF"/>
<path opacity="0.1" d="M244.14 96.4028C245.956 96.4028 247.427 94.9071 247.427 93.0621C247.427 91.2171 245.956 89.7214 244.14 89.7214C242.325 89.7214 240.854 91.2171 240.854 93.0621C240.854 94.9071 242.325 96.4028 244.14 96.4028Z" fill="#6C63FF"/>
<path opacity="0.1" d="M181.697 35.3159C183.512 35.3159 184.983 33.8202 184.983 31.9752C184.983 30.1302 183.512 28.6345 181.697 28.6345C179.882 28.6345 178.41 30.1302 178.41 31.9752C178.41 33.8202 179.882 35.3159 181.697 35.3159Z" fill="#6C63FF"/>
<path opacity="0.1" d="M421.142 51.0648C422.957 51.0648 424.429 49.5691 424.429 47.7241C424.429 45.8791 422.957 44.3835 421.142 44.3835C419.327 44.3835 417.856 45.8791 417.856 47.7241C417.856 49.5691 419.327 51.0648 421.142 51.0648Z" fill="#6C63FF"/>
<path opacity="0.1" d="M442.27 65.3821C444.085 65.3821 445.556 63.8864 445.556 62.0414C445.556 60.1964 444.085 58.7007 442.27 58.7007C440.455 58.7007 438.983 60.1964 438.983 62.0414C438.983 63.8864 440.455 65.3821 442.27 65.3821Z" fill="#6C63FF"/>
<path opacity="0.1" d="M413.161 126.469C414.976 126.469 416.447 124.973 416.447 123.128C416.447 121.283 414.976 119.788 413.161 119.788C411.346 119.788 409.874 121.283 409.874 123.128C409.874 124.973 411.346 126.469 413.161 126.469Z" fill="#6C63FF"/>
<path opacity="0.1" d="M215.501 58.7007C217.316 58.7007 218.787 57.205 218.787 55.36C218.787 53.515 217.316 52.0193 215.501 52.0193C213.686 52.0193 212.214 53.515 212.214 55.36C212.214 57.205 213.686 58.7007 215.501 58.7007Z" fill="#6C63FF"/>
<path opacity="0.1" d="M92.4917 227.644C94.3068 227.644 95.7782 226.148 95.7782 224.303C95.7782 222.458 94.3068 220.963 92.4917 220.963C90.6766 220.963 89.2052 222.458 89.2052 224.303C89.2052 226.148 90.6766 227.644 92.4917 227.644Z" fill="#6C63FF"/>
<path opacity="0.1" d="M87.3272 151.286C89.1423 151.286 90.6137 149.79 90.6137 147.945C90.6137 146.1 89.1423 144.604 87.3272 144.604C85.5121 144.604 84.0407 146.1 84.0407 147.945C84.0407 149.79 85.5121 151.286 87.3272 151.286Z" fill="#6C63FF"/>
<path opacity="0.1" d="M267.616 28.6345C269.431 28.6345 270.902 27.1388 270.902 25.2938C270.902 23.4488 269.431 21.9531 267.616 21.9531C265.8 21.9531 264.329 23.4488 264.329 25.2938C264.329 27.1388 265.8 28.6345 267.616 28.6345Z" fill="#6C63FF"/>
<path opacity="0.1" d="M278.414 58.7007C280.229 58.7007 281.701 57.205 281.701 55.36C281.701 53.515 280.229 52.0193 278.414 52.0193C276.599 52.0193 275.128 53.515 275.128 55.36C275.128 57.205 276.599 58.7007 278.414 58.7007Z" fill="#6C63FF"/>
<defs>
<linearGradient id="paint0_linear" x1="180.551" y1="336.279" x2="180.551" y2="78.2676" gradientUnits="userSpaceOnUse">
<stop stop-color="#808080" stop-opacity="0.25"/>
<stop offset="0.54" stop-color="#808080" stop-opacity="0.12"/>
<stop offset="1" stop-color="#808080" stop-opacity="0.1"/>
</linearGradient>
<linearGradient id="paint1_linear" x1="84499.4" y1="203335" x2="84499.4" y2="64131.5" gradientUnits="userSpaceOnUse">
<stop stop-color="#808080" stop-opacity="0.25"/>
<stop offset="0.54" stop-color="#808080" stop-opacity="0.12"/>
<stop offset="1" stop-color="#808080" stop-opacity="0.1"/>
</linearGradient>
</defs>
</svg>
